<svg width="458" height="324" viewBox="0 0 458 324" fill="none" xmlns="http://www.w3.org/2000/svg">
<path d="M380.197 212.559C383.197 211.505 386.124 210.252 388.957 208.807C412.252 196.918 428.63 172.644 439.085 134.57L439.212 134.109L438.767 133.931L257.536 59.3821L257.402 60.0191C254.507 72.7565 249.682 81.0057 242.627 85.2309C231.687 91.7871 216.599 87.6405 202.011 83.6301C187.218 79.5991 171.884 75.3431 160.545 82.1442C153.25 86.5116 148.259 94.9466 145.3 107.926L102.441 160.653C97.3574 161.983 92.4306 163.854 87.7454 166.234C64.4509 178.122 48.0725 202.397 37.6175 240.471L36.937 242.966L103.051 161.595C141.532 151.609 190.539 170.036 238.144 187.998C288.534 207.002 340.5 226.57 380.197 212.559ZM437.875 134.778C427.544 172.253 411.387 196.171 388.489 207.839C348.306 228.337 292.517 207.342 238.572 187.015C191.398 169.259 142.821 150.969 104.214 160.236L146.309 108.426L146.335 108.302C149.229 95.5642 154.051 87.3047 161.147 83.065C172.087 76.5088 187.175 80.6553 201.763 84.6658C216.556 88.6968 231.88 92.9564 243.229 86.1516C250.438 81.8375 255.384 73.5689 258.362 60.8715L437.875 134.778ZM101.264 162.133L39.4203 238.238C49.7446 201.957 65.7649 178.7 88.2458 167.225C92.4106 165.112 96.7686 163.404 101.26 162.123L101.264 162.133Z" fill="#16354D"/>
<path d="M356.663 191.79C359.415 190.82 362.098 189.664 364.694 188.33C385.283 177.721 399.731 156.106 408.952 122.203L407.892 121.918C398.806 155.484 384.506 176.896 364.15 187.378C328.838 205.555 279.849 187.376 232.467 169.786C184.85 152.117 135.64 133.9 99.9075 152.295C79.2777 162.919 64.7879 184.549 55.6081 218.438L56.6686 218.723C65.7504 185.146 80.0545 163.744 100.411 153.263C135.712 135.089 184.711 153.265 232.093 170.855C276.238 187.205 321.779 204.103 356.663 191.79Z" fill="#16354D"/>
<path d="M333.139 171.018C335.61 170.145 338.015 169.099 340.338 167.887C358.324 158.52 370.911 139.528 378.826 109.821L377.78 109.543C369.921 138.917 357.506 157.71 339.803 166.896C309.373 182.749 267.122 167.407 226.36 152.581C185.313 137.636 142.878 122.197 112.027 138.268C94.0413 147.635 81.454 166.627 73.539 196.334L74.5856 196.612C82.4444 167.238 94.8593 148.445 112.562 139.259C142.992 123.406 185.243 138.748 226.005 153.574C263.935 167.388 303.069 181.632 333.139 171.018Z" fill="#16354D"/>
<path d="M309.595 150.253C311.809 149.475 313.963 148.533 316.037 147.435C331.354 139.323 342.091 122.95 348.755 97.4322L347.716 97.209C341.098 122.433 330.579 138.567 315.542 146.523C289.996 160.062 254.593 147.508 220.311 135.379C185.828 123.171 150.168 110.545 124.202 124.302C108.885 132.415 98.1452 148.777 91.4848 174.305L92.5417 174.58C99.1591 149.356 109.679 133.222 124.716 125.265C150.265 111.737 185.665 124.281 219.946 136.41C251.635 147.58 284.337 159.168 309.595 150.253Z" fill="#16354D"/>
<path d="M286.058 129.508C288.015 128.821 289.915 127.98 291.74 126.994C304.358 120.146 313.202 106.408 318.659 85.04L317.602 84.7654C312.222 105.828 303.595 119.328 291.216 126.034C270.534 137.232 241.9 127.504 214.199 118.095C186.286 108.61 157.419 98.8143 136.317 110.23C123.699 117.077 114.855 130.816 109.398 152.184L110.465 152.455C115.835 131.396 124.462 117.895 136.841 111.19C157.513 99.9957 186.157 109.72 213.858 119.129C239.383 127.78 265.665 136.707 286.058 129.508Z" fill="#16354D"/>
<path d="M262.505 108.782C264.23 108.177 265.898 107.422 267.491 106.524C277.492 100.913 284.399 89.8121 288.608 72.609L287.545 72.3483C283.413 89.2465 276.677 100.113 266.96 105.578C251.149 114.455 229.297 107.527 208.159 100.82C186.803 94.0518 164.715 87.0447 148.491 96.1599C138.494 101.782 131.583 112.872 127.384 130.072L128.437 130.336C132.573 113.448 139.304 102.571 149.025 97.1163C164.843 88.2255 186.688 95.168 207.804 101.813C227.05 108.008 246.894 114.292 262.505 108.782Z" fill="#16354D"/>
<path d="M158.377 83.6097L159.199 84.3262L85.954 168.382L85.1318 167.666L158.377 83.6097Z" fill="#16354D"/>
<path d="M178.085 79.048L179.137 79.3359L156.661 161.447L155.609 161.159L178.085 79.048Z" fill="#16354D"/>
<path d="M201.347 84.3386L202.375 83.9756L238.864 187.351L237.836 187.714L201.347 84.3386Z" fill="#16354D"/>
<path d="M225.596 88.7025L320.974 213.399L320.107 214.062L224.73 89.3651L225.596 88.7025Z" fill="#16354D"/>
<path d="M245.348 83.8544L391.477 206.638L390.775 207.473L244.647 84.6893L245.348 83.8544Z" fill="#16354D"/>
</svg>
